<svg width="150" height="150" viewBox="0 0 150 150" fill="none" xmlns="http://www.w3.org/2000/svg">
<rect width="150" height="150" rx="75" fill="#ECECEC"/>
<path d="M96.125 64.6875H89.8447L86.7566 60.0566C86.5912 59.8086 86.3671 59.6053 86.1043 59.4646C85.8415 59.3239 85.5481 59.2502 85.25 59.25H70.75C70.4519 59.2502 70.1585 59.3239 69.8957 59.4646C69.6328 59.6053 69.4088 59.8086 69.2434 60.0566L66.153 64.6875H59.875C58.4329 64.6875 57.0498 65.2604 56.0301 66.2801C55.0104 67.2998 54.4375 68.6829 54.4375 70.125V95.5C54.4375 96.9421 55.0104 98.3252 56.0301 99.3449C57.0498 100.365 58.4329 100.938 59.875 100.938H96.125C97.5671 100.938 98.9502 100.365 99.9699 99.3449C100.99 98.3252 101.562 96.9421 101.562 95.5V70.125C101.562 68.6829 100.99 67.2998 99.9699 66.2801C98.9502 65.2604 97.5671 64.6875 96.125 64.6875ZM86.1562 81.9062C86.1562 83.5194 85.6779 85.0963 84.7817 86.4376C83.8855 87.7789 82.6116 88.8243 81.1213 89.4416C79.6309 90.059 77.991 90.2205 76.4088 89.9058C74.8266 89.5911 73.3733 88.8143 72.2327 87.6736C71.092 86.5329 70.3152 85.0796 70.0005 83.4975C69.6858 81.9153 69.8473 80.2753 70.4646 78.785C71.0819 77.2946 72.1273 76.0208 73.4686 75.1246C74.8099 74.2284 76.3868 73.75 78 73.75C80.1632 73.75 82.2377 74.6093 83.7673 76.1389C85.2969 77.6685 86.1562 79.7431 86.1562 81.9062Z" fill="#6F6F6F"/>
</svg>
