<svg width="18" height="18" viewBox="0 0 18 18" fill="none" xmlns="http://www.w3.org/2000/svg">
<g id="bxs:up-arrow">
<path id="Vector" d="M15.7501 3.74995H2.25006C2.11338 3.75038 1.9794 3.78808 1.86255 3.85899C1.7457 3.92989 1.6504 4.03133 1.58691 4.15237C1.52342 4.27341 1.49414 4.40947 1.50223 4.54591C1.51032 4.68236 1.55546 4.81401 1.63281 4.9267L8.38281 14.6767C8.66256 15.081 9.33606 15.081 9.61656 14.6767L16.3666 4.9267C16.4447 4.81424 16.4905 4.68252 16.499 4.54586C16.5076 4.40919 16.4785 4.27279 16.4149 4.1515C16.3514 4.0302 16.2558 3.92864 16.1386 3.85784C16.0214 3.78705 15.887 3.74974 15.7501 3.74995Z" fill="#5949BE"/>
</g>
</svg>
