<svg width="28" height="28" viewBox="0 0 28 28" fill="none" xmlns="http://www.w3.org/2000/svg">
<g id="bi:wallet-fill" clip-path="url(#clip0_1002_1339)">
<g id="Group">
<path id="Vector" d="M2.625 3.5C1.92881 3.5 1.26113 3.77656 0.768845 4.26884C0.276562 4.76113 0 5.42881 0 6.125L0 9.625H10.5C10.7321 9.625 10.9546 9.71719 11.1187 9.88128C11.2828 10.0454 11.375 10.2679 11.375 10.5C11.375 10.9427 11.515 11.627 11.9105 12.1765C12.2728 12.6805 12.8853 13.125 14 13.125C15.1147 13.125 15.7273 12.6805 16.0895 12.1765C16.485 11.627 16.625 10.9427 16.625 10.5C16.625 10.2679 16.7172 10.0454 16.8813 9.88128C17.0454 9.71719 17.2679 9.625 17.5 9.625H28V6.125C28 5.42881 27.7234 4.76113 27.2312 4.26884C26.7389 3.77656 26.0712 3.5 25.375 3.5H2.625Z" fill="#F65428"/>
<path id="Vector_2" d="M28 11.375H18.2858C18.1591 12.0308 17.8949 12.6523 17.5105 13.1985C16.8228 14.154 15.6853 14.875 14 14.875C12.3147 14.875 11.1772 14.154 10.4895 13.1985C10.1051 12.6523 9.84088 12.0308 9.71425 11.375H0V21.875C0 22.5712 0.276562 23.2389 0.768845 23.7312C1.26113 24.2234 1.92881 24.5 2.625 24.5H25.375C26.0712 24.5 26.7389 24.2234 27.2312 23.7312C27.7234 23.2389 28 22.5712 28 21.875V11.375Z" fill="#F65428"/>
</g>
</g>
<defs>
<clipPath id="clip0_1002_1339">
<rect width="28" height="28" fill="white"/>
</clipPath>
</defs>
</svg>
