<svg width="64" height="60" viewBox="0 0 64 60" fill="none" xmlns="http://www.w3.org/2000/svg">
<g id="Icon">
<path id="Circle 2" opacity="0.21" fill-rule="evenodd" clip-rule="evenodd" d="M0.734375 30V37C0.734375 49.7025 11.0318 60 23.7344 60H32.1084H40.4825C53.185 60 63.4825 49.7025 63.4825 37V30V23C63.4825 10.2975 53.185 0 40.4825 0H32.1084H23.7344C11.0318 0 0.734375 10.2975 0.734375 23V30Z" fill="#8280FF"/>
<g id="Group">
<path id="Combined Shape" opacity="0.587821" fill-rule="evenodd" clip-rule="evenodd" d="M22.3438 23.3333C22.3438 26.2789 24.8409 28.6667 27.9214 28.6667C31.0018 28.6667 33.499 26.2789 33.499 23.3333C33.499 20.3878 31.0018 18 27.9214 18C24.8409 18 22.3438 20.3878 22.3438 23.3333ZM36.2875 28.667C36.2875 30.8761 38.1604 32.667 40.4707 32.667C42.7811 32.667 44.654 30.8761 44.654 28.667C44.654 26.4579 42.7811 24.667 40.4707 24.667C38.1604 24.667 36.2875 26.4579 36.2875 28.667Z" fill="#8280FF"/>
<path id="Combined Shape_2" fill-rule="evenodd" clip-rule="evenodd" d="M27.9014 31.333C21.3178 31.333 15.9164 34.5684 15.3759 40.9319C15.3465 41.2786 16.0397 41.9997 16.3894 41.9997H39.4238C40.4713 41.9997 40.4876 41.1936 40.4713 40.933C40.0627 34.3906 34.5776 31.333 27.9014 31.333ZM48.0826 42H42.704C42.7039 38.9987 41.6668 36.2291 39.9165 34.0008C44.6676 34.0498 48.5472 36.3461 48.8391 41.2C48.8509 41.3955 48.8391 42 48.0826 42Z" fill="#8280FF"/>
</g>
</g>
</svg>
