<svg width="33" height="33" viewBox="0 0 33 33" fill="none" xmlns="http://www.w3.org/2000/svg">
<g id="ph:student-fill">
<path id="Vector" d="M28.8162 7.55132L16.8162 3.55132C16.611 3.48289 16.389 3.48289 16.1838 3.55132L4.18375 7.55132C3.98463 7.6177 3.81145 7.74505 3.68873 7.91533C3.56601 8.08561 3.49998 8.29018 3.5 8.50007V18.5001C3.5 18.7653 3.60536 19.0196 3.79289 19.2072C3.98043 19.3947 4.23478 19.5001 4.5 19.5001C4.76522 19.5001 5.01957 19.3947 5.20711 19.2072C5.39464 19.0196 5.5 18.7653 5.5 18.5001V9.88757L9.69875 11.2863C8.5832 13.0886 8.22846 15.2599 8.71242 17.3235C9.19638 19.387 10.4795 21.1742 12.28 22.2926C10.03 23.1751 8.085 24.7713 6.6625 26.9538C6.58852 27.0638 6.53713 27.1873 6.51133 27.3173C6.48552 27.4473 6.48581 27.5811 6.51218 27.711C6.53854 27.8409 6.59046 27.9642 6.66492 28.0739C6.73937 28.1835 6.83488 28.2772 6.94588 28.3496C7.05688 28.422 7.18117 28.4717 7.31151 28.4956C7.44185 28.5195 7.57566 28.5173 7.70514 28.4891C7.83463 28.4609 7.95722 28.4072 8.06577 28.3312C8.17433 28.2552 8.2667 28.1583 8.3375 28.0463C10.2213 25.1563 13.1962 23.5001 16.5 23.5001C19.8037 23.5001 22.7788 25.1563 24.6625 28.0463C24.8092 28.2643 25.0357 28.4158 25.2932 28.4681C25.5507 28.5204 25.8184 28.4692 26.0385 28.3257C26.2586 28.1821 26.4133 27.9578 26.4692 27.7011C26.5252 27.4443 26.4779 27.1759 26.3375 26.9538C24.915 24.7713 22.9625 23.1751 20.72 22.2926C22.5188 21.1743 23.8007 19.3882 24.2846 17.3262C24.7684 15.2641 24.4148 13.0943 23.3013 11.2926L28.8162 9.45507C29.0154 9.38873 29.1886 9.2614 29.3114 9.09112C29.4342 8.92084 29.5002 8.71624 29.5002 8.50632C29.5002 8.29641 29.4342 8.09181 29.3114 7.92153C29.1886 7.75125 29.0154 7.62391 28.8162 7.55757V7.55132ZM22.5 15.5001C22.5003 16.4486 22.2756 17.3838 21.8445 18.2287C21.4134 19.0736 20.7881 19.8043 20.0199 20.3608C19.2517 20.9173 18.3625 21.2837 17.4253 21.43C16.4881 21.5763 15.5295 21.4983 14.6283 21.2024C13.7271 20.9065 12.9088 20.4011 12.2407 19.7277C11.5726 19.0544 11.0737 18.2322 10.7849 17.3287C10.4961 16.4251 10.4256 15.466 10.5792 14.5299C10.7329 13.5939 11.1063 12.7076 11.6687 11.9438L16.1838 13.4438C16.389 13.5123 16.611 13.5123 16.8162 13.4438L21.3312 11.9438C22.091 12.9738 22.5006 14.2202 22.5 15.5001Z" fill="#F65428"/>
</g>
</svg>
