<svg width="42" height="42" viewBox="0 0 42 42" fill="none" xmlns="http://www.w3.org/2000/svg">
<g id="simple-icons:vodafone" clip-path="url(#clip0_870_332)">
<path id="Vector" d="M21 0C15.4305 0 10.089 2.21249 6.15076 6.15076C2.21249 10.089 0 15.4305 0 21C0 26.5695 2.21249 31.911 6.15076 35.8492C10.089 39.7875 15.4305 42 21 42C26.5695 42 31.911 39.7875 35.8492 35.8492C39.7875 31.911 42 26.5695 42 21C42 15.4305 39.7875 10.089 35.8492 6.15076C31.911 2.21249 26.5695 0 21 0ZM28.4375 1.96C28.9975 1.96 29.575 2.0125 29.9425 2.135C26.145 2.9225 23.1175 6.4575 23.135 10.5C23.135 10.5875 23.135 10.6925 23.1525 10.7975C29.5225 12.355 32.375 16.1875 32.375 21.49C32.445 26.7925 28.245 32.62 21.1575 32.6375C15.435 32.655 9.4675 27.755 9.4325 19.8975C9.415 14.7 12.25 9.695 15.82 6.7375C19.32 3.8325 24.0975 1.9775 28.4375 1.96Z" fill="#FF0000"/>
</g>
<defs>
<clipPath id="clip0_870_332">
<rect width="42" height="42" fill="white"/>
</clipPath>
</defs>
</svg>
