<svg width="32" height="33" viewBox="0 0 32 33" fill="none" xmlns="http://www.w3.org/2000/svg">
<g id="solar:wallet-bold-duotone">
<path id="Vector" d="M7.66602 9.83334C7.4008 9.83334 7.14645 9.93869 6.95891 10.1262C6.77137 10.3138 6.66602 10.5681 6.66602 10.8333C6.66602 11.0986 6.77137 11.3529 6.95891 11.5404C7.14645 11.728 7.4008 11.8333 7.66602 11.8333H12.9993C13.2646 11.8333 13.5189 11.728 13.7065 11.5404C13.894 11.3529 13.9993 11.0986 13.9993 10.8333C13.9993 10.5681 13.894 10.3138 13.7065 10.1262C13.5189 9.93869 13.2646 9.83334 12.9993 9.83334H7.66602Z" fill="#4635B7"/>
<path id="Vector_2" fill-rule="evenodd" clip-rule="evenodd" d="M28.25 11.172C28.1673 11.1667 28.0767 11.1667 27.9834 11.1667H24.286C21.258 11.1667 18.666 13.4813 18.666 16.5C18.666 19.5187 21.258 21.8333 24.286 21.8333H27.9834C28.0767 21.8333 28.1673 21.8333 28.25 21.828C29.4807 21.7533 30.5687 20.8187 30.6607 19.512C30.666 19.4267 30.666 19.3347 30.666 19.2493V13.7507C30.666 13.6653 30.666 13.5733 30.6607 13.488C30.5687 12.1813 29.4807 11.248 28.25 11.172ZM23.9607 17.9227C24.7393 17.9227 25.3713 17.2853 25.3713 16.5C25.3713 15.7133 24.7393 15.0773 23.9607 15.0773C23.1807 15.0773 22.5473 15.7147 22.5473 16.5C22.5473 17.2867 23.1807 17.9227 23.9607 17.9227Z" fill="#4635B7"/>
<path id="Vector_3" opacity="0.5" d="M28.186 11.1693C28.186 9.59467 28.1273 7.90533 27.122 6.696C27.0237 6.57753 26.9201 6.46363 26.8113 6.35467C25.8127 5.35733 24.5473 4.91467 22.9847 4.704C21.4647 4.5 19.5247 4.5 17.074 4.5H14.258C11.8073 4.5 9.86602 4.5 8.34602 4.704C6.78335 4.91467 5.51802 5.35733 4.51935 6.35467C3.52202 7.35333 3.07935 8.61867 2.86868 10.1813C2.66602 11.7013 2.66602 13.6413 2.66602 16.092V16.2413C2.66602 18.692 2.66602 20.6333 2.87002 22.152C3.08068 23.7147 3.52335 24.98 4.52068 25.9787C5.51935 26.976 6.78468 27.4187 8.34735 27.6293C9.86735 27.8333 11.8073 27.8333 14.258 27.8333H17.074C19.5247 27.8333 21.466 27.8333 22.9847 27.6293C24.5473 27.4187 25.8127 26.976 26.8113 25.9787C27.077 25.7122 27.3122 25.4171 27.5127 25.0987C28.1127 24.1387 28.1847 22.9627 28.1847 21.832L27.9847 21.8333H24.286C21.258 21.8333 18.666 19.5187 18.666 16.5C18.666 13.4813 21.258 11.1667 24.286 11.1667H27.9833C28.0527 11.1667 28.122 11.1667 28.186 11.1693Z" fill="#4635B7"/>
</g>
</svg>
